<?xml version="1.0" encoding="UTF-8"?>
<svg width="24px" height="17px" viewBox="0 0 24 17" version="1.1" xmlns="http://www.w3.org/2000/svg" xmlns:xlink="http://www.w3.org/1999/xlink">
    <!-- Generator: Sketch 51 (57462) - http://www.bohemiancoding.com/sketch -->
    <title>FeedbackIcon</title>
    <desc>Created with Sketch.</desc>
    <defs></defs>
    <g id="Page-1" stroke="none" stroke-width="1" fill="none" fill-rule="evenodd">
        <g id="FeedbackIcon" transform="translate(0.000000, -3.000000)" fill-rule="nonzero">
            <path d="M16.4266667,14.4145679 L6.83259259,14.4145679 L6.83259259,3.90592593 L23.5718519,3.90592593 L23.5718519,16.8792593 L19.8854321,14.4145679 L16.4266667,14.4145679 Z M11.5580247,11.8076543 C13.9441975,10.8412346 14.7501235,9.09950617 14.4967901,7.79530864 C14.32,6.92024691 13.6987654,6.35283951 12.8933333,6.35283951 C12.4479012,6.35283951 11.957037,6.53654321 11.4814815,6.88222222 C10.9980247,6.52123457 10.5145679,6.33753086 10.0617284,6.33753086 C9.2562963,6.33753086 8.6345679,6.90493827 8.46617284,7.79530864 C8.21283951,9.11481481 9.02617284,10.8639506 11.4044444,11.8076543 C11.4536032,11.8280661 11.5088659,11.8280661 11.5580247,11.8076543 Z" id="Shape" fill="#00EFD1"></path>
            <polygon id="Shape" fill="#00ACEA" points="16.4266667 14.4145679 16.4266667 17.1232099 3.86765432 17.1232099 0.428148148 19.5879012 0.428148148 6.6145679 6.81481481 6.6145679 6.83259259 6.6145679 6.83259259 14.4145679"></polygon>
            <path d="M14.4967901,7.79530864 C14.7501235,9.09950617 13.9441975,10.8412346 11.5580247,11.8076543 C11.5088659,11.8280661 11.4536032,11.8280661 11.4044444,11.8076543 C9.02617284,10.8639506 8.21283951,9.11481481 8.46617284,7.79530864 C8.6345679,6.90493827 9.2562963,6.33753086 10.0617284,6.33753086 C10.5145679,6.33753086 10.9980247,6.52123457 11.4814815,6.88222222 C11.957037,6.53654321 12.4479012,6.35283951 12.8933333,6.35283951 C13.6987654,6.35283951 14.32,6.92024691 14.4967901,7.79530864 Z" id="Shape" fill="#D7443E"></path>
            <path d="M11.258716,12.1748642 C11.2647901,12.177284 11.2709136,12.1795062 11.2770864,12.1816296 C11.4088878,12.2301883 11.5536801,12.2301883 11.6854815,12.1816296 C11.6924938,12.1792099 11.6994568,12.1766914 11.706321,12.1738765 C14.2957531,11.1251358 15.1684444,9.18128395 14.8845926,7.72004938 C14.8845926,7.71906173 14.8842469,7.71812346 14.884,7.7171358 C14.6680988,6.64839506 13.886716,5.95782716 12.8933333,5.95782716 C12.438321,5.95782716 11.9560494,6.11125926 11.4848889,6.40395062 C11.0081481,6.09777778 10.5304198,5.94251852 10.0617284,5.94251852 C9.06108642,5.94251852 8.28241975,6.64098765 8.07817284,7.72088889 C7.79476543,9.19718519 8.6682963,11.146963 11.258716,12.1748642 Z M8.85437037,7.86869136 C8.98691358,7.16790123 9.44953086,6.73254321 10.0617284,6.73254321 C10.4274568,6.73254321 10.836642,6.89377778 11.2450864,7.19871605 C11.3837841,7.30229651 11.5737601,7.30351752 11.7137778,7.2017284 C12.1222716,6.90479012 12.5301235,6.74785185 12.8933333,6.74785185 C13.5028148,6.74785185 13.9685926,7.17851852 14.1092346,7.87195062 C14.328,9.00281481 13.5979259,10.528 11.4804938,11.4123457 C9.36345679,10.5457778 8.63446914,9.01407407 8.85432099,7.86874074 L8.85437037,7.86869136 Z" id="Shape" fill="#083863"></path>
            <path d="M23.5718519,3.5 L6.83259259,3.5 C6.60874978,3.50356673 6.42709925,3.68217526 6.41975309,3.90592593 L6.41975309,6.21604938 L0.428148148,6.21604938 C0.324685581,6.21749455 0.226174829,6.26059017 0.154890994,6.33559155 C0.0836071593,6.41059292 0.0455708274,6.51116548 0.049382716,6.6145679 L0.049382716,19.5879012 C0.0460971575,19.7346739 0.126005741,19.8707097 0.255802469,19.9393086 C0.310164812,19.9679708 0.370692623,19.9829544 0.432148148,19.982963 C0.513766575,19.984141 0.593652218,19.9593799 0.660296296,19.9122469 L3.9945679,17.5246914 L16.4266667,17.5246914 C16.649628,17.5231077 16.8317046,17.3460403 16.8395062,17.1232099 L16.8395062,14.808642 L19.7655309,14.808642 L23.3522963,17.2072099 C23.4172661,17.2507431 23.493695,17.2740138 23.5719012,17.2740741 C23.6341691,17.2740696 23.6953894,17.2580503 23.749679,17.2275556 C23.8763749,17.1580187 23.9538384,17.0237475 23.9506173,16.8792593 L23.9506173,3.90592593 C23.9506173,3.68765432 23.7900741,3.5 23.5718519,3.5 Z M16.0493827,16.7345679 L3.86765432,16.7345679 C3.78795205,16.7334469 3.71004541,16.7582661 3.64567901,16.805284 L0.839506173,18.8187654 L0.839506173,7.00617284 L6.41975309,7.00617284 L6.41975309,14.4145679 C6.42828551,14.6358956 6.61110748,14.8104075 6.83259259,14.808642 L16.0493827,14.808642 L16.0493827,16.7345679 Z M23.1604938,16.1399012 L20.0968395,14.0855802 C20.0348978,14.0421102 19.961105,14.018702 19.8854321,14.0185185 L7.20987654,14.0185185 L7.20987654,4.29012346 L23.1604938,4.29012346 L23.1604938,16.1399012 Z" id="Shape" fill="#083863"></path>
            <path d="M16.2523457,7.15432099 L19.3797531,7.15432099 C19.5979397,7.15432099 19.7748148,6.97744583 19.7748148,6.75925926 C19.7748148,6.54107269 19.5979397,6.36419753 19.3797531,6.36419753 L16.2523457,6.36419753 C16.0341591,6.36419753 15.857284,6.54107269 15.857284,6.75925926 C15.857284,6.97744583 16.0341591,7.15432099 16.2523457,7.15432099 Z" id="Shape" fill="#083863"></path>
            <path d="M16.2523457,11.7962963 L21.6582716,11.7962963 C21.8764582,11.7962963 22.0533333,11.6194211 22.0533333,11.4012346 C22.0533333,11.183048 21.8764582,11.0061728 21.6582716,11.0061728 L16.2523457,11.0061728 C16.0341591,11.0061728 15.857284,11.183048 15.857284,11.4012346 C15.857284,11.6194211 16.0341591,11.7962963 16.2523457,11.7962963 Z" id="Shape" fill="#083863"></path>
            <path d="M16.2523457,9.32716049 L21.6582716,9.32716049 C21.8764582,9.32716049 22.0533333,9.15028533 22.0533333,8.93209877 C22.0533333,8.7139122 21.8764582,8.53703704 21.6582716,8.53703704 L16.2523457,8.53703704 C16.0341591,8.53703704 15.857284,8.7139122 15.857284,8.93209877 C15.857284,9.15028533 16.0341591,9.32716049 16.2523457,9.32716049 Z" id="Shape" fill="#083863"></path>
        </g>
    </g>
</svg>