<svg width="28" height="28" viewBox="0 0 28 28" fill="none"
  xmlns="http://www.w3.org/2000/svg">
  <g clip-path="url(#clip0)">
    <path d="M14.0962 10.1968C16.0458 10.1968 17.6263 8.62407 17.6263 6.68399C17.6263 4.7439 16.0458 3.17114 14.0962 3.17114C12.1465 3.17114 10.566 4.7439 10.566 6.68399C10.566 8.62407 12.1465 10.1968 14.0962 10.1968Z" fill="currentColor"/>
    <path d="M9.8483 17.4806C11.798 17.4806 13.3785 15.9078 13.3785 13.9678C13.3785 12.0277 11.798 10.4549 9.8483 10.4549C7.89863 10.4549 6.31812 12.0277 6.31812 13.9678C6.31812 15.9078 7.89863 17.4806 9.8483 17.4806Z" fill="currentColor"/>
    <path d="M5.86206 24.8956C7.81173 24.8956 9.39224 23.3229 9.39224 21.3828C9.39224 19.4427 7.81173 17.8699 5.86206 17.8699C3.91239 17.8699 2.33188 19.4427 2.33188 21.3828C2.33188 23.3229 3.91239 24.8956 5.86206 24.8956Z" fill="currentColor"/>
    <path d="M14.0962 24.8956C16.0458 24.8956 17.6263 23.3229 17.6263 21.3828C17.6263 19.4427 16.0458 17.8699 14.0962 17.8699C12.1465 17.8699 10.566 19.4427 10.566 21.3828C10.566 23.3229 12.1465 24.8956 14.0962 24.8956Z" fill="currentColor"/>
    <path d="M22.3325 24.8956C24.2822 24.8956 25.8627 23.3229 25.8627 21.3828C25.8627 19.4427 24.2822 17.8699 22.3325 17.8699C20.3828 17.8699 18.8023 19.4427 18.8023 21.3828C18.8023 23.3229 20.3828 24.8956 22.3325 24.8956Z" fill="currentColor"/>
    <path d="M18.2814 17.4806C20.2311 17.4806 21.8116 15.9078 21.8116 13.9678C21.8116 12.0277 20.2311 10.4549 18.2814 10.4549C16.3317 10.4549 14.7512 12.0277 14.7512 13.9678C14.7512 15.9078 16.3317 17.4806 18.2814 17.4806Z" fill="currentColor"/>
    <path d="M21.813 26.8333H6.1921C3.55397 26.8333 1.57089 25.919 0.602832 24.2549C-0.365229 22.5908 -0.168484 20.4261 1.15058 18.1525L8.96214 4.69063C10.279 2.41918 12.0698 1.16667 13.997 1.16667C15.9264 1.16667 17.7149 2.41918 19.034 4.69063L26.8456 18.1525C28.1646 20.4261 28.3591 22.6019 27.3933 24.2549C26.4275 25.9079 24.4511 26.8333 21.813 26.8333ZM14.0014 2.11886C12.4364 2.11886 10.934 3.20229 9.79382 5.16672L1.9845 18.6285C0.844287 20.5952 0.643075 22.4239 1.43452 23.7788C2.22596 25.1336 3.91168 25.8811 6.1921 25.8811H21.813C24.0934 25.8811 25.7836 25.1359 26.5706 23.7788C27.3575 22.4217 27.1608 20.5952 26.0206 18.6285L18.2113 5.16672C17.0711 3.19784 15.5754 2.11886 14.0014 2.11886Z" fill="currentColor"/>
  </g>
  <defs>
    <clipPath id="clip0">
      <rect width="28" height="25.6667" fill="white" transform="translate(0 1.16667)"/>
    </clipPath>
  </defs>
</svg>
