<svg width="28" height="28" viewBox="0 0 28 28" fill="none"
  xmlns="http://www.w3.org/2000/svg">
  <path fill-rule="evenodd" clip-rule="evenodd" d="M9.35746 9.44675L7.59298 7.89896C5.79113 9.60057 4.66667 12.0119 4.66667 14.6858C4.66667 17.2656 5.71334 19.6009 7.40519 21.2903L9.2167 19.7966C7.85249 18.5193 7 16.7021 7 14.6858C7 12.601 7.91138 10.7291 9.35746 9.44675ZM18.6425 19.9249L20.407 21.4727C22.2089 19.7711 23.3333 17.3598 23.3333 14.6858C23.3333 12.0119 22.2089 9.60057 20.407 7.89896L18.6426 9.44675C20.0886 10.7291 21 12.601 21 14.6858C21 16.7706 20.0886 18.6425 18.6425 19.9249Z" fill="currentColor"/>
  <path fill-rule="evenodd" clip-rule="evenodd" d="M3.79341 24.2685L5.59818 22.7803C3.57657 20.6824 2.33333 17.8293 2.33333 14.6858C2.33333 11.4225 3.67313 8.47219 5.83265 6.35482L4.07441 4.8125C1.55625 7.34391 0 10.8331 0 14.6858C0 18.3931 1.44098 21.7638 3.79341 24.2685ZM28 14.6858C28 18.5385 26.4438 22.0277 23.9256 24.5592L22.1673 23.0168C24.3269 20.8995 25.6667 17.9491 25.6667 14.6858C25.6667 11.4225 24.3269 8.47219 22.1673 6.35482L23.9256 4.8125C26.4438 7.34391 28 10.8331 28 14.6858Z" fill="currentColor"/>
  <ellipse cx="14" cy="14.6858" rx="4.66667" ry="4.66667" fill="currentColor"/>
</svg>
