<svg width="28" height="28" viewBox="0 0 28 28" fill="none"
  xmlns="http://www.w3.org/2000/svg">
  <g clip-path="url(#clip0)">
    <path d="M3.6871 14.7281C5.72343 14.7281 7.3742 13.0966 7.3742 11.0841C7.3742 9.07165 5.72343 7.4402 3.6871 7.4402C1.65077 7.4402 0 9.07165 0 11.0841C0 13.0966 1.65077 14.7281 3.6871 14.7281Z" fill="currentColor"/>
    <path d="M24.2008 20.4652C26.2372 20.4652 27.8879 18.8337 27.8879 16.8212C27.8879 14.8087 26.2372 13.1773 24.2008 13.1773C22.1645 13.1773 20.5137 14.8087 20.5137 16.8212C20.5137 18.8337 22.1645 20.4652 24.2008 20.4652Z" fill="currentColor"/>
    <path d="M14.0175 7.28789C16.0538 7.28789 17.7046 5.65644 17.7046 3.64395C17.7046 1.63145 16.0538 0 14.0175 0C11.9812 0 10.3304 1.63145 10.3304 3.64395C10.3304 5.65644 11.9812 7.28789 14.0175 7.28789Z" fill="currentColor"/>
    <path fill-rule="evenodd" clip-rule="evenodd" d="M7.47227 16.1543H0V28.1546H7.47227V16.1543ZM6.53823 17.0774H0.934027V27.2315H6.53823V17.0774Z" fill="currentColor"/>
    <path fill-rule="evenodd" clip-rule="evenodd" d="M17.7467 8.30792H10.2744V28.1546H17.7467V8.30792ZM16.8126 9.23103H11.2084V27.2315H16.8126V9.23103Z" fill="currentColor"/>
    <path fill-rule="evenodd" clip-rule="evenodd" d="M28.021 21.6929H20.5487V28.1546H28.021V21.6929ZM27.087 22.616H21.4828V27.2315H27.087V22.616Z" fill="currentColor"/>
  </g>
  <defs>
    <clipPath id="clip0">
      <rect width="28" height="28" fill="white"/>
    </clipPath>
  </defs>
</svg>
