<svg width="28" height="28" viewBox="0 0 28 28" fill="none"
  xmlns="http://www.w3.org/2000/svg">
  <g clip-path="url(#clip0)">
    <path d="M4.94267 15.3622C6.25822 15.3622 7.32468 14.3002 7.32468 12.9902C7.32468 11.6802 6.25822 10.6182 4.94267 10.6182C3.62713 10.6182 2.56067 11.6802 2.56067 12.9902C2.56067 14.3002 3.62713 15.3622 4.94267 15.3622Z" fill="currentColor"/>
    <path d="M10.9801 15.3622C12.2957 15.3622 13.3621 14.3002 13.3621 12.9902C13.3621 11.6802 12.2957 10.6182 10.9801 10.6182C9.66457 10.6182 8.59811 11.6802 8.59811 12.9902C8.59811 14.3002 9.66457 15.3622 10.9801 15.3622Z" fill="currentColor"/>
    <path d="M17.0176 15.3622C18.3331 15.3622 19.3996 14.3002 19.3996 12.9902C19.3996 11.6802 18.3331 10.6182 17.0176 10.6182C15.7021 10.6182 14.6356 11.6802 14.6356 12.9902C14.6356 14.3002 15.7021 15.3622 17.0176 15.3622Z" fill="currentColor"/>
    <path d="M23.0551 15.3622C24.3706 15.3622 25.4371 14.3002 25.4371 12.9902C25.4371 11.6802 24.3706 10.6182 23.0551 10.6182C21.7395 10.6182 20.6731 11.6802 20.6731 12.9902C20.6731 14.3002 21.7395 15.3622 23.0551 15.3622Z" fill="currentColor"/>
    <path d="M4.94267 22.0015C6.25822 22.0015 7.32468 20.9395 7.32468 19.6295C7.32468 18.3195 6.25822 17.2575 4.94267 17.2575C3.62713 17.2575 2.56067 18.3195 2.56067 19.6295C2.56067 20.9395 3.62713 22.0015 4.94267 22.0015Z" fill="currentColor"/>
    <path d="M10.9801 22.0015C12.2957 22.0015 13.3621 20.9395 13.3621 19.6295C13.3621 18.3195 12.2957 17.2575 10.9801 17.2575C9.66457 17.2575 8.59811 18.3195 8.59811 19.6295C8.59811 20.9395 9.66457 22.0015 10.9801 22.0015Z" fill="currentColor"/>
    <path d="M17.0176 22.0015C18.3331 22.0015 19.3996 20.9395 19.3996 19.6295C19.3996 18.3195 18.3331 17.2575 17.0176 17.2575C15.7021 17.2575 14.6356 18.3195 14.6356 19.6295C14.6356 20.9395 15.7021 22.0015 17.0176 22.0015Z" fill="currentColor"/>
    <path d="M12.959 4.2343H8.51566V5.26064H12.959V4.2343Z" fill="currentColor"/>
    <path d="M22.7138 4.2343V5.26064H26.9693V24.6403H1.03068V5.26064H5.54274V4.2343H0V25.6667H28V4.2343H22.7138Z" fill="currentColor"/>
    <path d="M20.2516 4.2343H15.5311V5.26064H20.2516V4.2343Z" fill="currentColor"/>
    <rect x="6.41309" y="1.16667" width="1.1452" height="6.8423" rx="0.572598" fill="currentColor"/>
    <rect x="13.7423" y="1.16667" width="1.14519" height="6.8423" rx="0.572597" fill="currentColor"/>
    <rect x="20.8426" y="1.16667" width="1.14519" height="6.8423" rx="0.572595" fill="currentColor"/>
  </g>
  <defs>
    <clipPath id="clip0">
      <rect width="28" height="24.5" fill="white" transform="translate(0 1.16667)"/>
    </clipPath>
  </defs>
</svg>
