<?xml version="1.0" encoding="UTF-8"?>
<svg width="24px" height="24px" viewBox="0 0 24 24" version="1.1"
    xmlns="http://www.w3.org/2000/svg"
    xmlns:xlink="http://www.w3.org/1999/xlink">
    <!-- Generator: Sketch 51 (57462) - http://www.bohemiancoding.com/sketch -->
    <title>settings</title>
    <desc>Created with Sketch.</desc>
    <defs></defs>
    <g id="Page-1" stroke="none" stroke-width="1" fill="currentColor" fill-rule="evenodd">
        <g id="settings" fill="currentColor" fill-rule="nonzero">
            <path d="M0.0641965954,2.19598294 L1.66073775,4.98976577 C1.71459064,5.08417253 1.80472855,5.15247375 1.91013571,5.17890763 L3.39962782,5.55128066 L8.508264,10.6599168 L9.07273425,10.0956108 L3.88413966,4.90718039 C3.83307791,4.85595447 3.76904553,4.81966945 3.69893826,4.80210158 L2.26773205,4.44302757 L0.908439131,2.06299255 L2.07382882,0.8976029 L4.45484894,2.25820926 L4.81408712,3.68941551 C4.83149082,3.75968696 4.86794001,3.82388352 4.91900175,3.87494526 L10.1075963,9.06353985 L10.6719024,8.4990696 L5.5632662,3.39043343 L5.19089317,1.90176227 C5.16445929,1.79619089 5.09615807,1.70588881 5.00175131,1.65187171 L2.2078043,0.055494725 C2.0519921,-0.0331654781 1.85595447,-0.00689577583 1.72887476,0.11969132 L0.132497821,1.71623248 C0.00410463888,1.84249126 -0.0238069072,2.03885725 0.0641965954,2.19598294 Z" id="Shape"></path>
            <polygon id="Shape" points="16.6576182 7.86596978 7.8771344 16.6466178 7.3126642 16.0821476 16.0933122 7.30166375"></polygon>
            <path d="M6.34035682,16.957257 C6.26811514,16.8370731 6.1384085,16.7636822 5.99819395,16.7636822 L3.60354641,16.7636822 C3.46349607,16.7636822 3.33362522,16.8370731 3.26154771,16.957257 L2.06414186,18.9527693 C1.98812389,19.0791922 1.98812389,19.237303 2.06414186,19.3638901 L3.26154771,21.3594024 C3.33362522,21.4794221 3.46349607,21.5529772 3.60354641,21.5529772 L5.99819395,21.5529772 C6.1384085,21.5529772 6.26811514,21.4794221 6.34035682,21.3594024 L7.5375985,19.3638901 C7.61361646,19.237303 7.61361646,19.0791922 7.5375985,18.9527693 L6.34035682,16.957257 Z M5.77243873,20.7547066 L3.82946585,20.7547066 L2.87160681,19.1583297 L3.82946585,17.5617885 L5.77243873,17.5617885 L6.73029772,19.1583297 L5.77243873,20.7547066 Z" id="Shape"></path>
            <path d="M19.1690018,9.57957529 C21.8050022,9.58844133 23.9492666,7.45862522 23.9581327,4.82262477 C23.9594461,4.42135507 23.9101904,4.02172724 23.8115149,3.63277147 C23.7583187,3.41883758 23.5417579,3.28863837 23.327824,3.34183448 C23.2575526,3.35940235 23.1935201,3.39568737 23.1422942,3.44674911 L20.6578371,5.92956437 L18.6866244,5.2726576 L18.029225,3.3019374 L20.5136822,0.816987741 C20.6694943,0.661011363 20.6693301,0.408329695 20.5133538,0.252517492 C20.4619637,0.201127398 20.3972745,0.164678207 20.3265105,0.147274508 C17.7701401,-0.500109478 15.1732159,1.0473402 14.5258319,3.60354641 C14.4274847,3.99135291 14.3783932,4.3899956 14.3797067,4.79011604 C14.3806918,5.10436733 14.4130363,5.41763353 14.4767404,5.72531744 L5.73598949,14.4659041 C5.42830563,14.4023643 5.11503938,14.3700197 4.80095227,14.3688704 C2.15575742,14.3688704 0.0114930158,16.5131349 0.0114930158,19.1583297 C0.0114930158,21.8033603 2.15575742,23.9476248 4.80095227,23.9476248 C7.44598294,23.9476248 9.59024738,21.8033603 9.59024738,19.1583297 C9.58926225,18.8440784 9.55675351,18.5308122 9.49321366,18.2231283 L11.5857596,16.1305823 L12.5009304,17.0457531 C12.6569067,17.2015652 12.9094243,17.2015652 13.0654006,17.0457531 L13.2648862,16.8461033 C13.439908,16.6722307 13.7227999,16.6722307 13.8978218,16.8461033 C14.0726795,17.0204685 14.0730079,17.3035245 13.8986427,17.4783822 C13.8984786,17.4785464 13.8981502,17.4788748 13.8978218,17.4792032 L13.6983363,17.6786887 C13.5425241,17.8345009 13.5425241,18.0871826 13.6983363,18.2429947 L18.4593914,23.0040499 C19.7116353,24.2677868 21.7511493,24.2769812 23.0148862,23.0247373 C24.2784588,21.7724934 24.2876532,19.7328152 23.0354094,18.4692425 C23.0286778,18.4623468 23.0217819,18.455451 23.0148862,18.4485552 L18.253831,13.6876642 C18.0980188,13.531852 17.8453371,13.531852 17.6895249,13.6876642 L17.4900394,13.8871498 C17.3148533,14.0611865 17.0321256,14.0611865 16.8569396,13.8871498 C16.6822461,13.7127846 16.6817535,13.4297285 16.8561186,13.255035 C16.856447,13.2547066 16.8567754,13.2545425 16.8569396,13.2542141 L17.0565893,13.0545644 C17.2124015,12.8987522 17.2124015,12.6460705 17.0565893,12.4902583 L16.1414186,11.5750876 L18.2339645,9.4825416 C18.5416484,9.54608146 18.8549146,9.57859019 19.1690018,9.57957529 Z M20.7371388,23.1495184 C20.4471869,23.1490258 20.1596979,23.0966506 19.888299,22.9946913 L23.0053634,19.8774628 C23.4757553,21.1287215 22.8428196,22.5242995 21.5915609,22.9946913 C21.3185201,23.0973074 21.0290608,23.1498468 20.7371388,23.1495184 Z M16.2156305,12.7764339 C15.7736427,13.303634 15.8429291,14.0894265 16.3701291,14.53125 C16.833461,14.9195491 17.5087566,14.9192207 17.9715959,14.5301007 L22.4505801,19.0130254 C22.4991791,19.0617885 22.5446585,19.1131786 22.5886602,19.1653896 L19.1762259,22.577824 C19.1238507,22.5339864 19.0724606,22.488507 19.0236975,22.4397439 L14.5412653,17.9569833 C14.983253,17.4297833 14.9139667,16.6439908 14.3867666,16.2021672 C13.9234348,15.813704 13.247975,15.8141966 12.7851357,16.2031524 L12.1466178,15.5646344 L15.5769483,12.1393936 L16.2156305,12.7764339 Z M17.8272767,8.76225919 L8.77325964,17.8144702 C8.67392734,17.9136383 8.63403022,18.0576292 8.66785244,18.1937391 C9.21541156,20.3440784 7.91604643,22.5311953 5.76554291,23.0785902 C3.6152036,23.6261493 1.42808667,22.3267841 0.880527594,20.1762807 C0.333132651,18.0259414 1.63249782,15.8388244 3.7830013,15.2912653 C4.43350483,15.1257662 5.11503938,15.1257662 5.76554291,15.2912653 C5.90165279,15.324595 6.04531524,15.2846979 6.14481171,15.1860223 L15.1966944,6.13364713 C15.2958625,6.03447896 15.3357596,5.89048817 15.301609,5.75454246 C14.7578262,3.62932354 16.0397876,1.46568521 18.1650066,0.9217382 C18.5666047,0.819122144 18.9819943,0.77971759 19.3957421,0.805494725 L17.2903897,2.91166815 C17.1835048,3.01838879 17.1460705,3.17649957 17.1938485,3.31983363 L17.9919549,5.71464538 C18.031852,5.83367996 18.1254378,5.92726575 18.2446366,5.96683452 L20.6394483,6.76510508 C20.7826182,6.81288311 20.940729,6.77561296 21.0476138,6.66889227 L23.1529663,4.56353985 C23.1577277,4.63972199 23.1601904,4.71508321 23.1601904,4.79011604 C23.1713551,6.98314361 21.4027474,8.76997593 19.2097198,8.78130473 C18.8706765,8.78294661 18.5327824,8.74124343 18.2044111,8.65718039 C18.0683012,8.62319395 17.9243104,8.66292689 17.8251423,8.76209502 L17.8272767,8.76209502 L17.8272767,8.76225919 Z" id="Shape"></path>
            <polygon id="Shape" points="20.6489711 20.0733363 20.0845009 20.6378065 16.0934764 16.646782 16.6577824 16.0823117"></polygon>
        </g>
    </g>
</svg>