<?xml version="1.0" encoding="UTF-8"?>
<svg width="24px" height="24px" viewBox="0 0 24 24" version="1.1" xmlns="http://www.w3.org/2000/svg" xmlns:xlink="http://www.w3.org/1999/xlink">
    <!-- Generator: Sketch 51 (57462) - http://www.bohemiancoding.com/sketch -->
    <title>ShareIcon</title>
    <desc>Created with Sketch.</desc>
    <defs></defs>
    <g id="Page-1" stroke="none" stroke-width="1" fill="none" fill-rule="evenodd">
        <g id="ShareIcon" fill-rule="nonzero">
            <circle id="Oval" fill="#C9F3FF" cx="20.53125" cy="3.4903125" r="3"></circle>
            <path d="M22.667625,5.38973437 C22.667625,4.9404375 22.3474219,4.55498438 21.9057656,4.472625 L21.3623906,4.37128125 L19.6979531,4.37165625 L19.1565938,4.472625 C18.7149375,4.55498437 18.3946875,4.94048437 18.3946875,5.38973437 L18.3946875,5.59551562 C18.9387656,6.14760937 19.6948594,6.49017187 20.53125,6.49017187 C21.3675469,6.49017187 22.1235469,6.14765625 22.667625,5.59570312 L22.667625,5.38973437 Z" id="Shape" fill="#FF5D5D"></path>
            <path d="M20.5311563,2.41504688 C19.9692656,2.41504688 19.5137813,2.87053125 19.5137813,3.43242188 L19.5137813,3.75070313 C19.5137813,4.31259375 19.9692656,4.76807813 20.5311563,4.76807813 C21.0930469,4.76807813 21.5485312,4.31259375 21.5485312,3.75070313 L21.5485312,3.43242188 C21.5485312,2.87053125 21.0930469,2.41504688 20.5311563,2.41504688 Z" id="Shape" fill="#FCC69D"></path>
            <circle id="Oval" fill="#C9F3FF" cx="15.83625" cy="19.5721875" r="3.9375"></circle>
            <path d="M18.640125,22.0655156 C18.640125,21.4758281 18.2198438,20.9699063 17.6401406,20.8617656 L16.9269375,20.7287344 L14.742375,20.72925 L14.0318437,20.8617656 C13.4521406,20.9698594 13.0318594,21.4758281 13.0318594,22.0655156 L13.0318594,22.3355625 C13.7459531,23.0602031 14.7383438,23.5098281 15.8361094,23.5098281 C16.9337344,23.5098281 17.9260313,23.0602969 18.640125,22.3358437 L18.640125,22.0655156 Z" id="Shape" fill="#A0E557"></path>
            <path d="M15.8360156,18.1612031 C15.0985313,18.1612031 14.5007344,18.7590469 14.5007344,19.4964844 L14.5007344,19.9142344 C14.5007344,20.6517187 15.0985781,21.2495156 15.8360156,21.2495156 C16.5735,21.2495156 17.1712969,20.6516719 17.1712969,19.9142344 L17.1712969,19.4964844 C17.1712969,18.7590469 16.5734531,18.1612031 15.8360156,18.1612031 Z" id="Shape" fill="#FCC69D"></path>
            <circle id="Oval" fill="#C9F3FF" cx="4.40625" cy="8.06015625" r="3.9375"></circle>
            <path d="M7.21026562,10.5533437 C7.21026562,9.96365625 6.78998437,9.45773438 6.21028125,9.34959375 L5.49707812,9.2165625 L3.31251562,9.21707813 L2.60198437,9.34959375 C2.02228125,9.4576875 1.602,9.96365625 1.602,10.5533437 L1.602,10.8233906 C2.31609375,11.5480312 3.30848437,11.9976562 4.40625,11.9976562 C5.503875,11.9976562 6.49617187,11.548125 7.21026562,10.8236719 L7.21026562,10.5533437 Z" id="Shape" fill="#4DBAF6"></path>
            <path d="M4.40610937,6.64903125 C3.668625,6.64903125 3.07082812,7.246875 3.07082812,7.9843125 L3.07082812,8.4020625 C3.07082812,9.13954688 3.66867188,9.73734375 4.40610937,9.73734375 C5.14359375,9.73734375 5.74139063,9.1395 5.74139063,8.4020625 L5.74139063,7.9843125 C5.7414375,7.246875 5.14359375,6.64903125 4.40610937,6.64903125 Z" id="Shape" fill="#FCC69D"></path>
            <path d="M15.560625,5.43796875 C15.6839063,5.43796875 15.8048437,5.3878125 15.8920313,5.300625 C15.9792188,5.2134375 16.029375,5.0925 16.029375,4.96921875 C16.029375,4.84546875 15.9792188,4.725 15.8920313,4.63734375 C15.8048437,4.55015625 15.6839063,4.50046875 15.560625,4.50046875 C15.4373438,4.50046875 15.3164063,4.55015625 15.2292188,4.63734375 C15.1420313,4.725 15.091875,4.84546875 15.091875,4.96921875 C15.091875,5.0925 15.1420313,5.2134375 15.2292188,5.300625 C15.3164063,5.3878125 15.4373438,5.43796875 15.560625,5.43796875 Z" id="Shape" fill="#000000"></path>
            <path d="M8.4121875,11.7032812 C8.28890625,11.7032812 8.16796875,11.7534375 8.08078125,11.840625 C7.99359375,11.9278125 7.9434375,12.04875 7.9434375,12.1720313 C7.9434375,12.2953125 7.99359375,12.41625 8.08078125,12.5034375 C8.16796875,12.590625 8.28890625,12.6407813 8.4121875,12.6407813 C8.53546875,12.6407813 8.65640625,12.590625 8.74359375,12.5034375 C8.83078125,12.41625 8.8809375,12.2953125 8.8809375,12.1720313 C8.8809375,12.04875 8.83078125,11.9278125 8.74359375,11.840625 C8.65640625,11.7534375 8.53546875,11.7032812 8.4121875,11.7032812 Z" id="Shape" fill="#000000"></path>
            <path d="M20.53125,0.021421875 C18.6185625,0.021421875 17.0625,1.57748437 17.0625,3.49017187 C17.0625,5.40285937 18.6185625,6.95892187 20.53125,6.95892187 C22.4439375,6.95892187 24,5.40285937 24,3.49017187 C24,1.57748437 22.4439375,0.021421875 20.53125,0.021421875 Z M20.53125,0.958921875 C21.927,0.958921875 23.0625,2.09442187 23.0625,3.49017187 C23.0625,3.85973437 22.98225,4.2106875 22.8392812,4.52746875 C22.6351406,4.26604687 22.3393125,4.07723437 21.99375,4.01221875 C22.0088906,3.92723437 22.0172812,3.83995312 22.0172812,3.75065625 L22.0172812,3.432375 C22.0172812,2.61290625 21.350625,1.94625 20.5311562,1.94625 C19.7116875,1.94625 19.0450313,2.61290625 19.0450313,3.432375 L19.0450313,3.75065625 C19.0450313,3.83990625 19.053375,3.92723437 19.0685625,4.01221875 C18.7230938,4.0771875 18.4272656,4.266 18.2231719,4.52728125 C18.08025,4.21054688 18,3.85964062 18,3.49017187 C18,2.09442187 19.1355,0.958921875 20.53125,0.958921875 Z M19.9825313,3.75070312 L19.9825313,3.43242187 C19.9825313,3.12989062 20.228625,2.88379687 20.5311562,2.88379687 C20.8336875,2.88379687 21.0797812,3.12989062 21.0797812,3.43242187 L21.0797812,3.75070312 C21.0797812,4.05323437 20.8336875,4.29932812 20.5311562,4.29932812 C20.228625,4.29932812 19.9825313,4.0531875 19.9825313,3.75070312 Z M18.8634375,5.39189063 L18.8634375,5.38973437 C18.8634375,5.16628125 19.0228594,4.97442187 19.2425156,4.93345312 L19.5600469,4.87425 C19.8207187,5.09985938 20.1601406,5.236875 20.5311562,5.236875 C20.9021719,5.236875 21.2415937,5.09990625 21.5022656,4.87425 L21.8198437,4.93345312 C22.0395,4.97442187 22.1989219,5.16632813 22.1989219,5.38973437 L22.1989219,5.39203125 C21.7531875,5.78339063 21.1696875,6.02142187 20.5312969,6.02142187 C19.8927656,6.02142187 19.3092187,5.78329687 18.8634375,5.39189063 Z" id="Shape" fill="#000000"></path>
            <path d="M15.8361094,15.1660781 C14.7913125,15.1660781 13.8305156,15.5318437 13.0744219,16.1417344 L9.89475,12.9837656 C9.71104688,12.8012812 9.41428125,12.8023125 9.23184375,12.9860156 C9.04940625,13.1696719 9.0504375,13.4664844 9.23409375,13.6489219 L12.4108125,16.8039844 C11.7977344,17.5611094 11.4298125,18.5244844 11.4298125,19.5723281 C11.4298125,22.0019531 13.4064375,23.9785781 15.8360625,23.9785781 C18.2656875,23.9785781 20.2423125,22.0019531 20.2423125,19.5723281 C20.2423125,17.1427031 18.2657344,15.1660781 15.8361094,15.1660781 Z M13.5006563,22.1347031 L13.5006563,22.0655156 C13.5006563,21.7017187 13.7602031,21.3892969 14.1178125,21.3225937 L14.6054062,21.2316562 C14.928,21.5332031 15.3607031,21.7183125 15.8360625,21.7183125 C16.3114219,21.7183125 16.744125,21.5332031 17.0666719,21.2316562 L17.5542188,21.3225937 C17.9118281,21.3892969 18.1714219,21.7017187 18.1714219,22.0655156 L18.1714219,22.1349375 C17.5546406,22.6975312 16.7347969,23.0410781 15.8361562,23.0410781 C14.937375,23.0410781 14.1174844,22.6973906 13.5006563,22.1347031 Z M16.7025469,19.9142344 C16.7025469,20.3920312 16.3138125,20.7807656 15.8360156,20.7807656 C15.3582188,20.7807656 14.9694844,20.3920312 14.9694844,19.9142344 L14.9694844,19.4964844 C14.9694844,19.0186875 15.3582188,18.6299531 15.8360156,18.6299531 C16.3138125,18.6299531 16.7025469,19.0186875 16.7025469,19.4964844 L16.7025469,19.9142344 Z M18.8852812,21.2249062 C18.6449063,20.8052812 18.2287969,20.4947344 17.7260625,20.4009375 L17.5805156,20.3737969 C17.6192344,20.2269844 17.6400469,20.073 17.6400469,19.9142344 L17.6400469,19.4964844 C17.6400469,18.5017031 16.83075,17.6924531 15.8360156,17.6924531 C14.8412812,17.6924531 14.0319844,18.50175 14.0319844,19.4964844 L14.0319844,19.9142344 C14.0319844,20.073 14.0527969,20.2269844 14.0915156,20.3737969 L13.9459219,20.4009375 C13.4433281,20.4946875 13.0272656,20.8051406 12.7868438,21.2246719 C12.5194219,20.7331406 12.3673594,20.170125 12.3673594,19.5722812 C12.3673594,17.6595937 13.9234219,16.1035312 15.8361094,16.1035312 C17.7487969,16.1035312 19.3048594,17.6595937 19.3048594,19.5722812 C19.3048594,20.1702656 19.1527969,20.7333281 18.8852812,21.2249062 Z" id="Shape" fill="#000000"></path>
            <path d="M8.753625,7.34179688 L13.9879688,5.89125 C14.2374375,5.82210938 14.3836406,5.56382812 14.3145,5.31435937 C14.2454063,5.06489062 13.987125,4.91864063 13.7376094,4.98782813 L8.50321875,6.438375 C7.85592187,4.80895312 6.26348438,3.65390625 4.40625,3.65390625 C1.976625,3.65390625 0,5.63053125 0,8.06015625 C0,10.4897813 1.976625,12.4664062 4.40625,12.4664062 C6.835875,12.4664062 8.8125,10.4897813 8.8125,8.06015625 C8.8125,7.8155625 8.79215625,7.57565625 8.753625,7.34179688 Z M2.07075,10.6225312 L2.07075,10.5533437 C2.07075,10.1895469 2.33029688,9.877125 2.68790625,9.81042187 L3.1755,9.71948438 C3.49809375,10.0210313 3.93079688,10.2060938 4.40615625,10.2060938 C4.88151563,10.2060938 5.31421875,10.0209844 5.63676563,9.71948438 L6.12435938,9.81042187 C6.48196875,9.877125 6.74151562,10.1895469 6.74151562,10.5533437 L6.74151562,10.6227656 C6.1246875,11.1853125 5.30489063,11.5289062 4.40625,11.5289062 C3.50751562,11.5289062 2.68757813,11.1852188 2.07075,10.6225312 Z M5.2726875,8.40210937 C5.2726875,8.87990625 4.88395313,9.26864062 4.40615625,9.26864062 C3.92835937,9.26864062 3.539625,8.87995313 3.539625,8.40210937 L3.539625,7.98435937 C3.539625,7.5065625 3.92835937,7.11782812 4.40615625,7.11782812 C4.88395313,7.11782812 5.2726875,7.5065625 5.2726875,7.98435937 L5.2726875,8.40210937 Z M7.45542187,9.71273438 C7.21504687,9.29310938 6.7989375,8.9825625 6.29620313,8.8888125 L6.15065625,8.86167187 C6.189375,8.71485937 6.2101875,8.560875 6.2101875,8.40210937 L6.2101875,7.98435937 C6.2101875,6.989625 5.40089063,6.18032812 4.40615625,6.18032812 C3.41142188,6.18032812 2.602125,6.989625 2.602125,7.98435937 L2.602125,8.40210937 C2.602125,8.560875 2.6229375,8.71485937 2.66165625,8.86167187 L2.5160625,8.8888125 C2.01346875,8.9825625 1.59740625,9.29296875 1.35698438,9.71254688 C1.08951562,9.22096875 0.9375,8.658 0.9375,8.06015625 C0.9375,6.14746875 2.4935625,4.59140625 4.40625,4.59140625 C6.3189375,4.59140625 7.875,6.14746875 7.875,8.06015625 C7.875,8.65809375 7.72289062,9.22115625 7.45542187,9.71273438 Z" id="Shape" fill="#000000"></path>
        </g>
    </g>
</svg>