<?xml version="1.0" encoding="UTF-8"?>
<svg width="24px" height="24px" viewBox="0 0 24 24" version="1.1" xmlns="http://www.w3.org/2000/svg" xmlns:xlink="http://www.w3.org/1999/xlink">
    <!-- Generator: Sketch 51 (57462) - http://www.bohemiancoding.com/sketch -->
    <title>StarIcon</title>
    <desc>Created with Sketch.</desc>
    <defs></defs>
    <g id="Page-1" stroke="none" stroke-width="1" fill="none" fill-rule="evenodd">
        <g id="StarIcon" fill-rule="nonzero">
            <path d="M20.9095673,7.55576608 L14.8361637,6.99244444 L12.4236257,1.3902924 C12.2546901,0.998011696 11.6985263,0.998011696 11.5296374,1.3902924 L9.11709942,6.99239766 L3.04364912,7.55576608 C2.61833918,7.59520468 2.44650292,8.12414035 2.76739181,8.40605848 L7.34975439,12.4316491 L6.00870175,18.3819181 C5.91480702,18.7985731 6.36477193,19.1254971 6.73197661,18.9074386 L11.9765614,15.7932865 L17.2211462,18.9074386 C17.5883977,19.1254971 18.0383158,18.7985731 17.9444211,18.3819181 L16.6033216,12.4316491 L21.185731,8.40605848 C21.5067135,8.12409357 21.3348304,7.59520468 20.9095673,7.55576608 Z" id="Shape" fill="#FFDC64"></path>
            <g id="Group" transform="translate(0.327485, 0.874269)" fill="#FFF082">
                <path d="M5.44037427,0.323181287 C5.7499883,0.753263158 6.62390643,2.60014035 7.12350877,3.67649123 C7.20205848,3.8457076 6.98975439,3.99854971 6.85422222,3.87036257 C5.992,3.05511111 4.5177076,1.64042105 4.20814035,1.21038596 C3.9631345,0.870081871 4.04042105,0.395602339 4.38067836,0.150690058 C4.72088889,-0.0943625731 5.19536842,-0.017122807 5.44037427,0.323181287 Z" id="Shape"></path>
                <path d="M17.8579649,0.323181287 C17.5483509,0.753263158 16.6744327,2.60014035 16.1748304,3.67649123 C16.0962807,3.8457076 16.3085848,3.99854971 16.444117,3.87036257 C17.306386,3.05511111 18.7806316,1.64042105 19.0901988,1.21038596 C19.3352047,0.870081871 19.2579181,0.395602339 18.9176608,0.150690058 C18.5773567,-0.0943625731 18.102924,-0.017122807 17.8579649,0.323181287 Z" id="Shape"></path>
                <path d="M22.7505497,12.9343158 C22.2467368,12.7700117 20.221614,12.4985731 19.0443977,12.349614 C18.8593216,12.3261754 18.7781988,12.5748772 18.9415205,12.665076 C19.9802105,13.2388304 21.7759532,14.2135673 22.2797661,14.3778713 C22.6784094,14.507883 23.1069942,14.2901053 23.2369591,13.891462 C23.366924,13.4928655 23.1491462,13.0643275 22.7505497,12.9343158 Z" id="Shape"></path>
                <path d="M0.54774269,12.9343158 C1.05155556,12.7700117 3.07667836,12.4985731 4.25389474,12.349614 C4.43897076,12.3261754 4.52009357,12.5748772 4.35677193,12.665076 C3.31808187,13.2388304 1.52233918,14.2135673 1.01852632,14.3778713 C0.619883041,14.507883 0.191298246,14.2901053 0.0613333333,13.891462 C-0.0687251462,13.4928655 0.149099415,13.0643275 0.54774269,12.9343158 Z" id="Shape"></path>
                <path d="M10.9132164,21.5026433 C10.9132164,20.9727251 11.2831345,18.9632281 11.5065263,17.797848 C11.5416608,17.6146433 11.8032281,17.6146433 11.8383626,17.797848 C12.0618012,18.9632281 12.4316725,20.9727251 12.4316725,21.5026433 C12.4316725,21.9219649 12.0917427,22.2618947 11.6724211,22.2618947 C11.2530994,22.261848 10.9132164,21.9219649 10.9132164,21.5026433 Z" id="Shape"></path>
            </g>
            <path d="M13.3008655,3.42748538 L12.4236257,1.3902924 C12.2546901,0.998011696 11.6985263,0.998011696 11.5296374,1.3902924 L9.11709942,6.99239766 L3.04364912,7.55576608 C2.61833918,7.59520468 2.44650292,8.12414035 2.76739181,8.40605848 L7.34975439,12.4316491 L6.00870175,18.3819181 C5.91480702,18.7985731 6.36477193,19.1254971 6.73197661,18.9074386 L7.43003509,18.4929357 C8.57436257,11.0853099 11.7914386,5.64760234 13.3008655,3.42748538 Z" id="Shape" fill="#FFC850"></path>
            <path d="M16.9915322,12.5576842 L21.4173099,8.66959064 C21.6727953,8.44521637 21.7662222,8.10491228 21.661193,7.78159064 C21.556117,7.45817544 21.2804678,7.23777778 20.9418947,7.20643275 L15.075883,6.66233918 L13.9775439,4.11164912 C13.9008655,3.93368421 13.6945497,3.8514386 13.5164912,3.92816374 C13.3385263,4.00479532 13.2563743,4.21120468 13.3330058,4.38916959 L14.5138246,7.13115789 C14.5646316,7.24909942 14.6758363,7.32989474 14.8036959,7.34173099 L20.8770994,7.90505263 C20.9545731,7.91225731 20.9834386,7.9665731 20.993731,7.99833918 C21.0040702,8.03010526 21.0126316,8.09101754 20.954152,8.14233918 L16.3717895,12.1679766 C16.2752749,12.2527485 16.2328421,12.3834152 16.2610994,12.5087485 L17.602152,18.458924 C17.6192281,18.5348538 17.5764678,18.5790643 17.5494737,18.5987135 C17.5224327,18.6183158 17.4671813,18.6453567 17.4003275,18.6055439 L12.1556491,15.4915322 C12.0452865,15.4260351 11.9077427,15.4260351 11.7973801,15.4915322 L6.55284211,18.6056374 C6.48603509,18.6454503 6.43073684,18.6183626 6.40364912,18.5987602 C6.37665497,18.5791579 6.33389474,18.5349006 6.35097076,18.4590643 L7.04327485,15.3875789 C7.08589474,15.1985263 6.96715789,15.0107368 6.77815205,14.968117 C6.58895906,14.9255439 6.40126316,15.0442339 6.35869006,15.2332398 L5.66638596,18.3047719 C5.59162573,18.6364678 5.71611696,18.9666667 5.99115789,19.1664795 C6.13955556,19.2743158 6.31040936,19.3287251 6.48224561,19.3286784 C6.62900585,19.3286784 6.77646784,19.2890058 6.91111111,19.2090526 L11.9765146,16.2012865 L17.0420117,19.2090526 C17.3344094,19.3826199 17.6868772,19.3662924 17.9618713,19.1664795 C18.2369591,18.9666667 18.3614035,18.6364211 18.2866433,18.3047251 L16.9915322,12.5576842 Z" id="Shape" fill="#000000"></path>
            <path d="M2.53581287,8.66959064 L6.96163743,12.5576842 L6.6740117,13.8341287 C6.63139181,14.0231345 6.75012865,14.2109708 6.93918129,14.2535439 C6.9651462,14.2593918 6.99106433,14.2622456 7.01660819,14.2622456 C7.17707602,14.2622456 7.32182456,14.1515088 7.35859649,13.9883743 L7.69207018,12.5087018 C7.72032749,12.3834152 7.67784795,12.2527018 7.58138012,12.1679766 L2.99901754,8.14233918 C2.9405848,8.09101754 2.94919298,8.03010526 2.9594386,7.99833918 C2.96977778,7.9665731 2.99864327,7.91225731 3.07607018,7.90505263 L9.1494269,7.34173099 C9.27728655,7.32989474 9.38849123,7.24909942 9.43929825,7.13115789 L11.851883,1.52909942 C11.8826199,1.45766082 11.9432515,1.44699415 11.9766082,1.44699415 C12.0100117,1.44699415 12.0706433,1.45766082 12.1013801,1.52909942 L12.7566316,3.05064327 C12.8333099,3.22860819 13.0396725,3.31080702 13.2176842,3.23412865 C13.3956491,3.15745029 13.4778012,2.95104094 13.4011696,2.77307602 L12.7459181,1.25153216 C12.6114152,0.939251462 12.3166316,0.745239766 11.9766082,0.745239766 C11.6365848,0.745239766 11.341848,0.939204678 11.207345,1.25153216 L8.87719298,6.66233918 L3.01122807,7.20643275 C2.67265497,7.23782456 2.39705263,7.45822222 2.29197661,7.78159064 C2.18694737,8.10491228 2.28042105,8.44516959 2.53581287,8.66959064 Z" id="Shape" fill="#000000"></path>
            <path d="M7.57422222,5.59473684 C7.64121637,5.65705263 7.72706433,5.68872515 7.81333333,5.68872515 C7.8848655,5.68872515 7.95667836,5.66692398 8.01824561,5.6225731 C8.15396491,5.52484211 8.20187135,5.34491228 8.13267836,5.19263158 C7.96725146,4.82865497 6.50348538,1.61864327 6.0525848,0.992350877 C5.87934503,0.751695906 5.62273684,0.592912281 5.33010526,0.545239766 C5.0371462,0.497520468 4.7437193,0.56671345 4.50306433,0.740046784 C4.00631579,1.0977076 3.8931462,1.79272515 4.25071345,2.28952047 C4.70166082,2.91585965 7.28154386,5.32240936 7.57422222,5.59473684 Z M4.91307602,1.30963743 C4.98334503,1.25901754 5.06591813,1.2325848 5.15083041,1.2325848 C5.17291228,1.2325848 5.19508772,1.23436257 5.21730994,1.23796491 C5.32500585,1.25550877 5.41932164,1.31389474 5.48308772,1.40240936 C5.69529825,1.69709942 6.23419883,2.79272515 6.72191813,3.8220117 C5.90049123,3.0328655 5.03246784,2.1742924 4.82030409,1.87960234 C4.68874854,1.6968655 4.73038596,1.44119298 4.91307602,1.30963743 Z" id="Shape" fill="#000000"></path>
            <path d="M15.9350643,5.62261988 C15.9965848,5.66692398 16.0684444,5.68877193 16.1399766,5.68877193 C16.2262924,5.68877193 16.3121871,5.65705263 16.3790877,5.59478363 C16.6717661,5.32245614 19.2515556,2.91595322 19.7025029,2.28966082 C20.060117,1.79291228 19.9469474,1.09784795 19.450152,0.740187135 C19.2094035,0.566900585 18.9156023,0.497707602 18.6231111,0.545426901 C18.3304327,0.593099415 18.0738713,0.751883041 17.9006316,0.992491228 C17.449731,1.61878363 15.9859649,4.82879532 15.820538,5.19277193 C15.7514386,5.34495906 15.7992982,5.52488889 15.9350643,5.62261988 Z M18.4701754,1.40245614 C18.5338947,1.31389474 18.6282573,1.25550877 18.7359532,1.23796491 C18.7581754,1.23436257 18.7803509,1.2325848 18.8024327,1.2325848 C18.887345,1.2325848 18.9699181,1.25901754 19.0401871,1.30959064 C19.2228772,1.44119298 19.2645146,1.6968655 19.1329591,1.87960234 C18.9207953,2.1742924 18.0526784,3.03291228 17.231345,3.82205848 C17.7191111,2.79277193 18.2580117,1.69719298 18.4701754,1.40245614 Z" id="Shape" fill="#000000"></path>
            <path d="M23.8322339,14.0275322 C23.6979181,13.7631579 23.4686784,13.5669006 23.1867602,13.4749708 C23.1867602,13.474924 23.1867602,13.474924 23.1867602,13.474924 C22.4530994,13.2357193 18.9500351,12.8164444 18.553076,12.7694269 C18.3875556,12.7499181 18.2301287,12.8500819 18.1782456,13.0090994 C18.1263626,13.1680702 18.1939649,13.3415906 18.3396959,13.4236491 C18.6880936,13.6197193 21.7647251,15.3464561 22.498386,15.5856608 C22.6116959,15.6226199 22.728,15.6409591 22.8437895,15.6409591 C23.0161871,15.6409591 23.1873684,15.6003509 23.3454971,15.5199766 C23.6098713,15.3856608 23.8061287,15.1564211 23.8980117,14.8745497 C23.9898947,14.5926316 23.9665497,14.2919064 23.8322339,14.0275322 Z M23.2308304,14.6569591 C23.1970058,14.7606784 23.1248655,14.8449825 23.0276491,14.894386 C22.9302924,14.9437895 22.8196491,14.9523509 22.7160234,14.9185263 C22.370807,14.8059649 21.2890292,14.2397895 20.2876257,13.6970994 C21.4164678,13.8490994 22.624,14.0295439 22.9692164,14.1421988 C23.0729357,14.1760234 23.1572398,14.2482105 23.2066433,14.3454269 C23.2560936,14.4426433 23.264655,14.5532398 23.2308304,14.6569591 Z" id="Shape" fill="#000000"></path>
            <path d="M5.77497076,13.0091462 C5.7231345,12.8501754 5.56626901,12.7496374 5.40014035,12.7694737 C5.0031345,12.8164912 1.50007018,13.2357661 0.76645614,13.4749708 C0.76645614,13.4749708 0.76645614,13.4749708 0.76645614,13.4750175 C0.484538012,13.5669474 0.255298246,13.7631579 0.120982456,14.0275789 C-0.0133333333,14.2919064 -0.0366783626,14.5927251 0.055251462,14.8745965 C0.147181287,15.1564678 0.343391813,15.3857544 0.607812865,15.5200702 C0.76594152,15.6004444 0.937122807,15.6410526 1.10952047,15.6410526 C1.22530994,15.6410526 1.34161404,15.6227135 1.45487719,15.5858012 C2.1885848,15.3465497 5.26516959,13.6198596 5.61361404,13.4237427 C5.75925146,13.3416374 5.8268538,13.168117 5.77497076,13.0091462 Z M1.23719298,14.9185731 C1.13347368,14.9523509 1.02278363,14.9436959 0.925614035,14.894386 C0.828397661,14.8449357 0.75625731,14.7606784 0.722385965,14.6569123 C0.688561404,14.5532398 0.697169591,14.4425965 0.746573099,14.3453333 C0.796023392,14.248117 0.880280702,14.1759298 0.984,14.1421053 C1.32926316,14.0294971 2.53674854,13.8490058 3.66559064,13.6970058 C2.6642807,14.2398363 1.58245614,14.8059649 1.23719298,14.9185731 Z" id="Shape" fill="#000000"></path>
            <path d="M11.9998596,17.470807 C11.8326082,17.470807 11.6886082,17.5888421 11.6558129,17.7528655 C11.5774035,18.1449123 10.8897778,21.6052632 10.8897778,22.3769123 C10.8897778,22.9890292 11.3877895,23.4869942 11.9998596,23.4869942 C12.6119766,23.4869942 13.1099415,22.9889825 13.1099415,22.3769123 C13.1099415,21.6052164 12.4223158,18.1448655 12.3439064,17.7528655 C12.3111579,17.5888421 12.1671111,17.470807 11.9998596,17.470807 Z M11.9998596,22.7852398 C11.7746901,22.7852398 11.5914854,22.6020351 11.5914854,22.3768655 C11.5914854,22.013731 11.7943392,20.8097076 11.9998596,19.6894737 C12.2053801,20.8097076 12.4082339,22.0137778 12.4082339,22.3768655 C12.4082339,22.6020351 12.2250292,22.7852398 11.9998596,22.7852398 Z" id="Shape" fill="#000000"></path>
        </g>
    </g>
</svg>