<?xml version="1.0" encoding="UTF-8"?>
<svg width="48px" height="38px" viewBox="0 0 48 38" version="1.1" xmlns="http://www.w3.org/2000/svg" xmlns:xlink="http://www.w3.org/1999/xlink">
    <!-- Generator: Sketch 51 (57462) - http://www.bohemiancoding.com/sketch -->
    <title>versus</title>
    <desc>Created with Sketch.</desc>
    <defs></defs>
    <g id="Page-1" stroke="none" stroke-width="1" fill="none" fill-rule="evenodd">
        <g id="versus" fill-rule="nonzero">
            <g id="Group" transform="translate(0.843750, 4.687500)">
                <g fill="#C4E04C" id="Shape">
                    <path d="M18.423,17.928375 C18.4231875,16.2445312 19.0206562,14.700375 20.0150625,13.4965312 C20.8853437,12.4422187 22.0603125,11.64825 23.40525,11.25 L27.7304062,0.4753125 L21.195375,0.4753125 L13.9906875,19.8840937 L6.78609375,0.4753125 L0.09365625,0.4753125 L11.2349063,28.2304688 L16.58925,28.2304688 L19.338,21.3819375 C18.7559062,20.3637188 18.4231875,19.185 18.423,17.928375 Z"></path>
                    <path d="M25.8250312,10.977375 C27.8104687,11.0997188 29.570625,12.0541875 30.7615312,13.4965313 C31.4003438,14.2701563 31.8755625,15.1845938 32.133375,16.1854688 C32.9154375,16.4346563 33.7544062,16.665 34.6440937,16.8920625 C39.250125,18.0735 40.195125,18.8604375 40.195125,20.3961563 L40.195125,20.4747188 C40.195125,22.0888125 38.6991563,23.073 36.2188125,23.073 C34.3689375,23.073 32.7091875,22.6247813 31.1517188,21.8398125 C31.02975,22.0194375 30.8995313,22.1933438 30.7619063,22.3604063 C29.5005,23.8875 27.60075,24.8682188 25.4712187,24.8927813 C28.593375,27.2580938 32.3627812,28.4274375 36.1006875,28.4274375 C42.045375,28.4274375 46.218375,25.3565625 46.218375,19.8842813 L46.218375,19.8053437 C46.218375,15.002625 43.0689375,12.9945938 37.4783438,11.5380938 C32.7148125,10.3178438 31.5336563,9.72721875 31.5336563,7.9160625 L31.5336563,7.8373125 C31.5336563,6.49865625 32.7542813,5.43590625 35.077125,5.43590625 C37.3997813,5.43590625 39.8014688,6.45946875 42.24225,8.1523125 L45.3916875,3.58546875 C42.5965313,1.34146875 39.1715625,0.08175 35.155875,0.08175 C29.5260938,0.08175 25.5104063,3.38878125 25.5104063,8.38846875 C25.5105,9.26953125 25.5846563,10.1265937 25.8250312,10.977375 Z"></path>
                </g>
                <ellipse id="Oval-7-Copy" fill="#BB1919" cx="25.5468656" cy="17.9410313" rx="6.234375" ry="6.046875"></ellipse>
            </g>
            <g id="Group" fill="#000001">
                <path d="M17.0434687,35.7306563 L17.0211563,35.7306563 C16.503375,35.7306563 16.0836563,36.150375 16.0836563,36.6681563 C16.0836563,37.18575 16.503375,37.6056563 17.0211563,37.6056563 L17.0434687,37.6056563 C17.5610625,37.6056563 17.9809687,37.18575 17.9809687,36.6681563 C17.9809687,36.1502813 17.5611562,35.7306563 17.0434687,35.7306563 Z" id="Shape"></path>
                <path d="M14.3277187,35.7302812 L9.5431875,35.7302812 C9.02559375,35.7302812 8.6056875,36.15 8.6056875,36.6677812 C8.6056875,37.1854687 9.02559375,37.6052812 9.5431875,37.6052812 L14.3277187,37.6052812 C14.8455,37.6052812 15.2652187,37.1854687 15.2652187,36.6677812 C15.2652187,36.1499063 14.8455,35.7302812 14.3277187,35.7302812 Z" id="Shape"></path>
                <path d="M35.9997188,1.95665625 L36.0460313,1.95665625 C36.563625,1.95665625 36.9835313,1.5369375 36.9835313,1.01915625 C36.9835313,0.5015625 36.563625,0.08165625 36.0460313,0.08165625 L35.9997188,0.08165625 C35.4819375,0.08165625 35.0622188,0.5015625 35.0622188,1.01915625 C35.0622188,1.5369375 35.4818438,1.95665625 35.9997188,1.95665625 Z" id="Shape"></path>
                <path d="M38.6792812,2.12653125 C40.5623437,2.37065625 42.3674062,2.880375 44.0439375,3.64190625 C44.16975,3.699 44.301375,3.72609375 44.4312187,3.72609375 C44.7875625,3.72609375 45.1283437,3.52171875 45.2851875,3.1760625 C45.4994062,2.70478125 45.2909062,2.14903125 44.8193437,1.9348125 C42.9729375,1.09621875 40.98825,0.5349375 38.9200312,0.26709375 C38.4075,0.2000625 37.9364062,0.56296875 37.8699375,1.0764375 C37.8032812,1.58990625 38.165625,2.0600625 38.6792812,2.12653125 Z" id="Shape"></path>
                <path d="M45.4018125,18.3949688 C43.9195313,17.1139688 41.809125,16.165125 38.5549688,15.3173438 C33.7441875,14.085 33.315,13.619625 33.315,12.6035625 L33.315,12.5248125 C33.315,11.6355 34.3378125,11.0609063 35.9209688,11.0609063 C37.9095,11.0609063 40.0785938,11.8948125 42.5518125,13.6100625 C42.7565625,13.752 43.0094063,13.8065625 43.2541875,13.7620313 C43.4991563,13.7173125 43.716375,13.576875 43.8578438,13.3718438 L47.0072813,8.805 C47.2861875,8.4005625 47.2055625,7.84940625 46.8223125,7.54171875 C43.7560313,5.07984375 40.1145938,3.83165625 35.9997188,3.83165625 C33.4154063,3.83165625 31.1547188,4.485375 29.39325,5.6390625 L29.4441563,5.512125 C29.5602188,5.2231875 29.5250625,4.895625 29.3507813,4.637625 C29.1765,4.3798125 28.8855,4.2253125 28.57425,4.2253125 L22.0392188,4.2253125 C21.6473438,4.2253125 21.2967188,4.46925 21.1603125,4.8365625 L14.8345313,21.8777813 L8.50875,4.8365625 C8.37234375,4.46925 8.02190625,4.2253125 7.62984375,4.2253125 L0.93740625,4.2253125 C0.62615625,4.2253125 0.33515625,4.3798125 0.160875,4.637625 C-0.01340625,4.895625 -0.0485625,5.2231875 0.0675,5.512125 L11.20875,33.2670938 C11.3513438,33.6225 11.6957813,33.855375 12.0786563,33.855375 L17.433,33.855375 C17.815875,33.855375 18.1603125,33.6225 18.3029063,33.2670938 L20.4284063,27.9722813 C21.823875,29.4830625 23.7999375,30.4482188 25.9986563,30.5123438 C29.1268125,32.7969375 33.00075,34.0523438 36.9445313,34.0523438 C40.1435625,34.0523438 42.8682188,33.21225 44.8239375,31.6229063 C46.901625,29.9344688 47.9997188,27.4960313 47.9997188,24.5716875 L47.9997188,24.49275 C47.9997188,21.9004688 47.149875,19.90575 45.4018125,18.3949688 Z M16.7990625,31.9804688 L12.7125,31.9804688 L2.3240625,6.1003125 L6.97790625,6.1003125 L13.9557188,24.8979375 C14.092125,25.2654375 14.44275,25.5091875 14.834625,25.5091875 C15.2266875,25.5091875 15.577125,25.2654375 15.7135312,24.8979375 L22.6913438,6.1003125 L27.1876875,6.1003125 L23.5408125,15.185625 C22.2332813,15.66075 21.0864375,16.4725313 20.2033125,17.51475 C20.1758437,17.5416563 20.1493125,17.5700625 20.12475,17.601 C20.107875,17.6220938 20.0926875,17.6440313 20.0780625,17.6661563 C18.9856875,19.021875 18.329625,20.7432188 18.329625,22.615875 C18.329625,23.8738125 18.626625,25.0630313 19.151625,26.1199688 L16.7990625,31.9804688 Z M34.1226563,22.188 C34.4727188,22.2844687 34.846875,22.3835625 35.2549688,22.4875312 C40.101375,23.7306562 40.101375,24.3878437 40.101375,25.0835625 L40.101375,25.162125 C40.101375,26.7031875 37.7753438,26.8229062 37.0625625,26.8229062 C35.7709688,26.8229062 34.539375,26.5845 33.3235313,26.0985 C33.8420625,25.0470937 34.1346563,23.865375 34.1346563,22.615875 C34.13475,22.4723437 34.1303438,22.3296562 34.1226563,22.188 Z M26.3906156,28.6754063 C22.9474654,28.6754063 20.1562406,25.9681281 20.1562406,22.6285313 C20.1562406,19.2889344 22.9474654,16.5816563 26.3906156,16.5816563 C29.8337658,16.5816563 32.6249906,19.2889344 32.6249906,22.6285313 C32.6249906,25.9681281 29.8337658,28.6754063 26.3906156,28.6754063 Z M46.1247188,24.5715938 C46.1247188,29.2629375 42.607125,32.17725 36.9445313,32.17725 C34.0834688,32.17725 31.2651563,31.4443125 28.8080625,30.0849375 C30.1617188,29.61675 31.3493438,28.7910938 32.2579688,27.7202813 C32.2660313,27.7124063 32.2737188,27.7039688 32.2815938,27.6957188 C33.8311875,28.3688438 35.402625,28.6979063 37.0626563,28.6979063 C40.685625,28.6979063 41.9764688,26.8714688 41.9764688,25.162125 L41.9764688,25.0835625 C41.9764688,22.6812188 40.0467188,21.7808438 35.7197813,20.671125 C34.9501875,20.4748125 34.3058438,20.2977188 33.7299375,20.124375 C33.4290938,19.2214688 32.9701875,18.39075 32.3851875,17.6649375 C32.37075,17.643375 32.3558438,17.6217188 32.3394375,17.601 C32.3150625,17.5700625 32.2885313,17.5420313 32.26125,17.515125 C31.0555313,16.0921875 29.3575313,15.0989063 27.4318125,14.80425 C27.3375,14.2907813 27.29175,13.7284688 27.29175,13.075875 C27.29175,8.668125 30.7910625,5.70665625 35.9997188,5.70665625 C39.3699375,5.70665625 42.3781875,6.6384375 44.9548125,8.47828125 L42.8379375,11.5480313 C40.3500938,9.96 38.0799375,9.1858125 35.9209688,9.1858125 C32.8255313,9.1858125 31.44,10.8627188 31.44,12.5247188 L31.44,12.6034688 C31.44,15.3045 33.7201875,16.014375 38.0860313,17.1328125 C41.004,17.8930313 42.9390938,18.7448438 44.17575,19.8136875 C45.5055,20.962875 46.1247188,22.4496563 46.1247188,24.49275 L46.1247188,24.5715938 Z" id="Shape"></path>
            </g>
        </g>
    </g>
</svg>