<?xml version="1.0" encoding="UTF-8"?>
<svg width="24px" height="21px" viewBox="0 0 24 21" version="1.1" xmlns="http://www.w3.org/2000/svg" xmlns:xlink="http://www.w3.org/1999/xlink">
    <!-- Generator: Sketch 51 (57462) - http://www.bohemiancoding.com/sketch -->
    <title>WebIcon</title>
    <desc>Created with Sketch.</desc>
    <defs></defs>
    <g id="Page-1" stroke="none" stroke-width="1" fill="none" fill-rule="evenodd">
        <g id="WebIcon" transform="translate(0.000000, -2.000000)" fill-rule="nonzero">
            <path d="M22.4727273,12.5131819 C22.4727273,18.0894144 17.7840203,22.6100002 12,22.6100002 C6.21597966,22.6100002 1.52727273,18.0894144 1.52727273,12.5131819 C1.52727273,6.93677371 6.21597966,2.41636364 12,2.41636364 C17.7840203,2.41636364 22.4727273,6.93677371 22.4727273,12.5131819 Z" id="Shape" fill="#80E0DC"></path>
            <path d="M22.4727273,12.3663919 C22.4727273,17.9087192 17.7920082,22.4018184 12.0178417,22.4018184 C10.9487739,22.4018184 9.9170035,22.2477872 8.94545455,21.9613801 C9.39393172,22.0177883 9.85132389,22.0469529 10.3161755,22.0469529 C16.0901601,22.0469529 20.7710611,17.5538537 20.7710611,12.0115264 C20.7710611,7.49520034 17.6631961,3.67620572 13.3885626,2.41636364 C18.5150298,3.06077966 22.4727273,7.27009133 22.4727273,12.3663919 Z" id="Shape" fill="#00A8B0"></path>
            <path d="M23.2610649,14.9072728 L0.957116952,14.9072728 C0.669583322,14.9072728 0.436363636,14.6886158 0.436363636,14.4186518 L0.436363636,11.4404393 C0.436363636,11.1706475 0.669399841,10.9518183 0.957116952,10.9518183 L23.2610649,10.9518183 C23.548782,10.9518183 23.7818182,11.1706475 23.7818182,11.4404393 L23.7818182,14.4186518 C23.7818182,14.6886158 23.548782,14.9072728 23.2610649,14.9072728 Z" id="Shape" fill="#E7E7E7"></path>
            <path d="M23.0471444,15.1154547 L18.9818182,15.1154547 L18.9818182,10.9518183 L23.0471444,10.9518183 C23.3323251,10.9518183 23.5636364,11.1787569 23.5636364,11.4585467 L23.5636364,14.6087262 C23.5636364,14.8886946 23.3325071,15.1154547 23.0471444,15.1154547 Z" id="Shape" fill="#C9F0FF"></path>
            <path d="M21.5351064,12.0876419 L21.7397871,12.5002212 C21.7646831,12.5504883 21.8128746,12.5851796 21.868535,12.5933214 L22.3260879,12.6595182 C22.4663946,12.6796958 22.5224106,12.8513827 22.4208705,12.9497928 L22.0897537,13.2710418 C22.0493866,13.3101581 22.0310703,13.366443 22.040673,13.421666 L22.1187397,13.8751316 C22.1427466,14.014251 21.996038,14.120272 21.8706689,14.0546062 L21.4613075,13.8404402 C21.4115155,13.8144217 21.351943,13.8144217 21.302151,13.8404402 L20.8929674,14.0546062 C20.7675983,14.120272 20.6208898,14.014251 20.6448966,13.8751316 L20.7229633,13.421666 C20.7325661,13.366443 20.7140719,13.3101581 20.6738827,13.2710418 L20.3427659,12.9497928 C20.2412258,12.8513827 20.2972418,12.6796958 20.4375485,12.6595182 L20.8951014,12.5933214 C20.9507617,12.5851796 20.9989533,12.5504883 21.0238493,12.5002212 L21.22853,12.0876419 C21.2911256,11.9610892 21.4725108,11.9610892 21.5351064,12.0876419 Z" id="Shape" fill="#FFD86E"></path>
            <path d="M23.0722858,14.9072728 L22.4727273,14.9072728 L22.4727273,10.9518183 L23.0722858,10.9518183 C23.3435847,10.9518183 23.5636364,11.1704849 23.5636364,11.4404606 L23.5636364,14.4188027 C23.5636364,14.6886062 23.3437578,14.9072728 23.0722858,14.9072728 Z" id="Shape" fill="#9AE7FD"></path>
            <path d="M23.128418,10.5450038 L22.6999512,10.5450038 C22.3110352,8.47426319 21.276123,6.56793385 19.6889648,5.04879479 C17.6352539,3.08269549 14.904419,2 12,2 C9.09558103,2 6.36474609,3.08269549 4.31103516,5.04879479 C2.71252444,6.57897641 1.67376708,8.50178195 1.29144286,10.5900504 L0.871582031,10.5900504 C0.390930187,10.5900504 0,10.9642701 0,11.4243762 L0,14.4563443 C0,14.9162751 0.390930187,15.2906701 0.871582031,15.2906701 L1.55145263,15.2906701 C2.13208008,17.2208373 3.28985597,18.9692407 4.91766356,20.3078428 C5.0650635,20.4289603 5.28717042,20.4130099 5.41387941,20.2719107 C5.54058839,20.1306363 5.52374269,19.9180234 5.37634275,19.7967307 C4.95520022,19.4505555 4.56793214,19.0747584 4.2161865,18.6744222 C4.75415039,18.4574273 5.30383303,18.278468 5.85754397,18.1317599 C6.12048338,18.5759156 6.4154663,19.0044717 6.74267578,19.413747 C7.4595337,20.3106473 8.26904297,21.0997513 9.13183594,21.7502099 C8.41497802,21.5491654 7.72174073,21.2729264 7.06787109,20.9249986 C6.89794922,20.8347301 6.68371584,20.8932732 6.58941652,21.0559316 C6.49493409,21.2185901 6.5560913,21.423666 6.72601317,21.5141097 C8.33020022,22.3671903 10.1539307,22.818182 12,22.818182 C14.904419,22.818182 17.6350708,21.7354865 19.6889648,19.7693872 C21.0082397,18.5066807 21.9455566,16.9759732 22.447998,15.3060946 L23.128418,15.3060946 C23.6090698,15.3060946 24,14.9318749 24,14.4717688 L24,11.3793296 C24,10.9193988 23.6090698,10.5450038 23.128418,10.5450038 Z M21.9834595,10.5450038 L19.5353393,10.5450038 C19.5060425,10.3704264 19.4736328,10.195849 19.4359131,10.0214468 C19.2268066,9.05513627 18.8999634,8.13247007 18.4606934,7.261511 C18.5255127,7.24450899 18.5906982,7.22785752 18.6551513,7.21032971 C19.1032104,7.0876347 19.673584,6.92076953 20.2338867,6.69132994 C21.1089478,7.84133244 21.7027588,9.15206529 21.9834595,10.5450038 Z M18.829834,10.5900504 L15.1933594,10.5900504 C15.1812744,10.4210819 15.1680908,10.2521134 15.1525268,10.0834954 C15.0827637,9.3297977 14.9798584,8.6001132 14.8472901,7.90232932 C15.8560181,7.80207004 16.8303223,7.64519574 17.7650757,7.43240758 C18.2109375,8.28934432 18.5396118,9.20114328 18.7467041,10.1581641 C18.777832,10.3018925 18.8047485,10.4459714 18.829834,10.5900504 Z M19.1912842,5.5250266 C19.3985596,5.7234419 19.5953979,5.92921888 19.7823487,6.14113061 C19.3135987,6.32131699 18.841919,6.45838478 18.4616089,6.56250025 C18.3513794,6.59264812 18.2404175,6.62156911 18.1290893,6.64996421 C17.9066162,6.26820758 17.6621704,5.89714289 17.3944702,5.53817246 C16.6929932,4.59797845 15.861145,3.77487045 14.911377,3.07673604 C16.5115357,3.53210965 17.9778442,4.36345575 19.1912842,5.5250266 Z M13.0852661,2.72880817 C14.5797729,3.53298603 15.8369751,4.60954681 16.8217163,5.92974472 C17.0363159,6.21772737 17.2349854,6.51412333 17.4188232,6.8177058 C16.5496216,7.00753242 15.6452637,7.14828109 14.7097778,7.23890008 C14.3023682,5.42318974 13.6853027,3.85917942 12.9124146,2.71285781 C12.9700927,2.71759034 13.027771,2.72284867 13.0852661,2.72880817 Z M12,2.67377068 C12.008606,2.67377068 12.0170288,2.67394595 12.0256348,2.67394595 C12.8807373,3.75418756 13.5644531,5.36780177 14.0048218,7.29744313 C13.2529907,7.34932558 12.4828491,7.37053427 11.6956787,7.35949171 C11.161377,7.35213004 10.5895386,7.33617968 9.99426272,7.30147455 C10.4346314,5.37008038 11.1187134,3.75488868 11.9743652,2.67394595 C11.9829712,2.67394595 11.991394,2.67377068 12,2.67377068 Z M11.0875854,2.71285781 C10.3126831,3.86180861 9.69470212,5.43055146 9.28729247,7.25152014 C8.40380859,7.17790315 7.48132322,7.0560846 6.55847166,6.8548648 C6.74853516,6.53813653 6.95471194,6.22929573 7.1782837,5.92956946 C8.16302489,4.60954681 9.42022706,3.53298603 10.9147339,2.72863285 C10.972229,2.72284867 11.0299072,2.71759034 11.0875854,2.71285781 Z M9.14996339,7.91652691 C9.01867678,8.60992879 8.916687,9.33488081 8.84747316,10.0834954 C8.83190916,10.2521134 8.81872556,10.4210819 8.80682372,10.5900504 L5.16979978,10.5900504 C5.19470212,10.4459714 5.22216797,10.3018925 5.25329587,10.1581641 C5.45727539,9.21516556 5.77990725,8.31633724 6.21569822,7.47026775 C7.20922852,7.69848042 8.20184325,7.83467183 9.14996339,7.91652691 Z M4.80871584,5.5250266 C6.02215575,4.36345575 7.48846434,3.53210965 9.08862305,3.07673604 C8.13867187,3.77487045 7.30682372,4.59797845 6.6055298,5.53817246 C6.32977294,5.90783492 6.07873537,6.29064324 5.85113527,6.68466938 C5.2994385,6.53831179 4.75158694,6.35970296 4.21563722,6.14340927 C4.40313722,5.93079637 4.60070803,5.72431828 4.80871584,5.5250266 Z M3.76574709,6.69203106 C4.34179687,6.93409074 4.93029787,7.132506 5.52227784,7.29533979 C5.09161378,8.15648322 4.77044677,9.06758101 4.56408694,10.0214468 C4.52325441,10.2107476 4.48791506,10.400399 4.4569702,10.5900504 L2.00738527,10.5900504 C2.28424073,9.18046043 2.88153075,7.85412776 3.76574709,6.69203106 Z M0.871582031,14.6168994 C0.779113781,14.6168994 0.703857422,14.5448599 0.703857422,14.456169 L0.703857422,11.4242009 C0.703857422,11.3356853 0.779113781,11.2636458 0.871582031,11.2636458 L11.0302734,11.2636458 C11.2247315,11.2636458 11.3822021,11.1129063 11.3822021,10.9267604 C11.3822021,10.7407899 11.2247315,10.5898751 11.0302734,10.5898751 L9.51196289,10.5898751 C9.52294922,10.4408883 9.53485106,10.2917263 9.54858398,10.1429148 C9.61834716,9.38904187 9.72161864,8.66146066 9.85491942,7.96823405 C10.4968872,8.00767175 11.1121216,8.02519961 11.6856079,8.03308713 C11.8244018,8.0350152 11.9628296,8.03606685 12.1008911,8.03606685 C12.7952271,8.03606685 13.4765625,8.01117732 14.1441651,7.96280045 C14.277832,8.65760456 14.3814698,9.38711379 14.451416,10.1429148 C14.4651489,10.2917263 14.4772339,10.4408883 14.4882202,10.5898751 L13.2275391,10.5898751 C13.0332642,10.5898751 12.8756104,10.7407899 12.8756104,10.9267604 C12.8756104,11.1129063 13.0332642,11.2636458 13.2275391,11.2636458 L18.6862793,11.2636458 L18.6862793,14.6167241 L0.871582031,14.6167241 L0.871582031,14.6168994 Z M18.6018677,15.2904948 C18.3991699,16.0147457 18.1186523,16.7169115 17.7628784,17.3850733 C16.8297729,17.172811 15.857666,17.0155862 14.850769,16.9153268 C14.9518432,16.3886148 15.0347901,15.8456019 15.098877,15.2906701 L18.6018677,15.2906701 L18.6018677,15.2904948 Z M14.3915405,15.2904948 C14.3280029,15.8256202 14.2463379,16.3486513 14.1472778,16.8555568 C13.3460083,16.7973644 12.5249634,16.7731759 11.6856079,16.7849196 C11.1110229,16.7928071 10.49469,16.810335 9.85162355,16.8499479 C9.75311278,16.3447952 9.67181395,15.8236921 9.60845948,15.2904948 L14.3915405,15.2904948 Z M3.76794431,18.1252746 C3.11425781,17.2629042 2.61401367,16.3051823 2.28570558,15.2904948 L4.67193605,15.2904948 C4.87408448,16.0610192 5.15789794,16.8092833 5.52209475,17.5228422 C4.93084716,17.6855007 4.34307863,17.8835655 3.76794431,18.1252746 Z M5.39886473,15.2904948 L8.90057372,15.2904948 C8.96411133,15.8408694 9.04650881,16.3795004 9.14648437,16.9020057 C8.19982912,16.9836854 7.20886228,17.1198769 6.21716306,17.3473884 C5.87091066,16.6906197 5.5977173,16.001074 5.39886473,15.2904948 Z M10.9112549,22.0872705 C9.59454347,21.3772172 8.34704588,20.3122248 7.30169677,19.0042964 C7.03399659,18.6696897 6.78991697,18.3208854 6.56799319,17.9610385 C7.4869995,17.761221 8.40545653,17.6401036 9.28527834,17.5666619 C9.4244385,18.1785592 9.58941652,18.7643401 9.77947997,19.3148899 C10.0599975,20.1262543 10.5003662,21.2085992 11.0925293,22.1047984 C11.0321045,22.0997153 10.9716797,22.0935806 10.9112549,22.0872705 Z M12,22.1444113 C11.991394,22.1444113 11.9829712,22.1440608 11.9743652,22.1440608 C11.4202881,21.4413691 10.8933105,20.3925024 10.447815,19.1033287 C10.2747802,18.602558 10.1237182,18.0711135 9.99444581,17.5165322 C10.5897217,17.4820023 11.161377,17.4658767 11.6956787,17.458515 C12.4828491,17.447823 13.2528076,17.4690317 14.0046387,17.5209142 C13.8755493,18.0739179 13.7246704,18.6039602 13.552185,19.1033287 C13.1068725,20.3925024 12.5797119,21.4413691 12.0256348,22.1440608 C12.0170288,22.144236 12.008606,22.1444113 12,22.1444113 Z M12.9067383,22.10585 C13.4992676,21.2094756 13.9400025,20.1266048 14.2203369,19.3148899 C14.4093018,18.7681962 14.5731811,18.1869726 14.7116089,17.5796325 C15.6430664,17.6699009 16.543396,17.8095979 17.4089355,17.9981976 C17.1932373,18.3448986 16.9566651,18.681258 16.6983032,19.0042964 C15.6518555,20.3134517 14.4030762,21.3793205 13.085083,22.0893739 C13.0257568,22.0953333 12.9662475,22.100767 12.9067383,22.10585 Z M19.1912842,19.2929801 C17.9652099,20.4666452 16.480957,21.3030744 14.8615723,21.7551177 C15.7267456,21.1037827 16.5386353,20.3129259 17.2573242,19.413747 C17.5761108,19.0151637 17.8639526,18.5980008 18.121582,18.1661144 C18.2354737,18.1952107 18.348999,18.2248328 18.4616089,18.2555065 C18.8415527,18.359622 19.3128662,18.4966897 19.7814331,18.6767008 C19.5944824,18.8886125 19.3985596,19.0947401 19.1912842,19.2929801 Z M20.2327881,18.1263262 C19.6728516,17.8972372 19.1028443,17.730372 18.6551513,17.6078523 C18.5906982,17.5901492 18.5255127,17.573673 18.4606934,17.556671 C18.8307495,16.8378537 19.1187744,16.0831044 19.3238526,15.3060946 L21.7122802,15.3060946 C21.3856201,16.314472 20.8879395,17.2653581 20.2327881,18.1263262 Z M23.2961426,14.4563443 C23.2961426,14.5448599 23.2208862,14.6168994 23.128418,14.6168994 L19.3899536,14.6168994 L19.3899536,11.2636458 L23.128418,11.2636458 C23.2208862,11.2636458 23.2961426,11.3358605 23.2961426,11.4243762 L23.2961426,14.4563443 Z" id="Shape" fill="#000000"></path>
            <path d="M22.4407084,12.2330414 L22.0477629,12.1808471 L21.8720463,11.8550226 C21.7791648,11.6830067 21.5915063,11.5763637 21.3818595,11.5763637 C21.1722128,11.5763637 20.9843647,11.6831801 20.8916728,11.8550226 L20.7159562,12.1808471 L20.3230107,12.2330414 C20.115449,12.2606125 19.9465564,12.3910117 19.8817289,12.5732584 C19.8169014,12.7556785 19.8699765,12.9521442 20.0201033,13.0860114 L20.3044344,13.3395268 L20.2373322,13.6976043 C20.2016961,13.8864403 20.2850999,14.0738891 20.4547507,14.1866012 C20.624212,14.2993132 20.8446634,14.3140525 21.0304263,14.2247498 L21.3818595,14.0556818 L21.7332927,14.2247498 C21.8140427,14.2634187 21.9012376,14.2826665 21.9882429,14.2826665 C22.1010276,14.2826665 22.2132435,14.2502401 22.3089683,14.1866012 C22.4784297,14.0738891 22.5618334,13.8864403 22.5263868,13.6976043 L22.4592847,13.3395268 L22.7436157,13.0860114 C22.8937425,12.9521442 22.9466281,12.7556785 22.8819902,12.5732584 C22.8171627,12.3910117 22.6480805,12.2606125 22.4407084,12.2330414 Z M21.8820926,12.9233593 C21.7533854,13.0383256 21.6946237,13.2037522 21.7249523,13.3658841 L21.7459928,13.4777291 L21.636241,13.4250146 C21.4770157,13.3483704 21.2868929,13.3483704 21.127478,13.4250146 L21.0177262,13.4777291 L21.0385772,13.3658841 C21.0690954,13.2037522 21.0103336,13.0383256 20.8814368,12.9233593 L20.7927256,12.8441141 L20.915367,12.8278142 C21.0933583,12.8042314 21.2472762,12.7019235 21.3270784,12.5543574 L21.3818595,12.4525698 L21.4368302,12.5543574 C21.5164429,12.7019235 21.6703608,12.8042314 21.848352,12.8278142 L21.9709935,12.8441141 L21.8820926,12.9233593 Z" id="Shape" fill="#000000"></path>
            <path d="M2.72975533,13.5560793 C2.72975533,13.6059025 2.65293838,13.6581819 2.56352841,13.6581819 C2.4665627,13.6581819 2.4,13.6059025 2.4,13.5560793 L2.4,11.8843675 C2.4,11.8245445 2.4665627,11.7845455 2.56352841,11.7845455 C2.65293838,11.7845455 2.72975533,11.8245445 2.72975533,11.8843675 L2.72975533,12.6490849 C2.77562965,12.5520698 2.89058528,12.4597914 3.05159513,12.4597914 C3.28654354,12.4597914 3.49090909,12.6890839 3.49090909,12.965568 L3.49090909,13.5559038 C3.49090909,13.6232705 3.40671624,13.6581819 3.32486207,13.6581819 C3.24822501,13.6581819 3.16133365,13.6232705 3.16133365,13.5559038 L3.16133365,12.965568 C3.16133365,12.8534656 3.05915088,12.7413632 2.93915806,12.7413632 C2.83445672,12.7413632 2.72957544,12.8259225 2.72957544,12.965568 L2.72957544,13.5560793 L2.72975533,13.5560793 Z" id="Shape" fill="#000000"></path>
            <path d="M4.22869944,13.2653764 C4.22869944,13.3599501 4.26145965,13.3939216 4.35974027,13.3939216 L4.45094201,13.3939216 C4.53736965,13.3939216 4.57951342,13.4594745 4.57951342,13.5248568 C4.57951342,13.5927997 4.53736965,13.6581819 4.45094201,13.6581819 L4.35974027,13.6581819 C4.07922079,13.6581819 3.92727273,13.5393672 3.92727273,13.2653764 L3.92727273,12.0896911 C3.92727273,12.0314787 4.00662153,11.9927274 4.07691603,11.9927274 C4.15396011,11.9927274 4.22886409,12.0314787 4.22886409,12.0896911 L4.22886409,12.5065668 L4.5047741,12.5065668 C4.55383206,12.5065668 4.58181818,12.5647793 4.58181818,12.6206017 C4.58181818,12.6786433 4.55383206,12.7344658 4.5047741,12.7344658 L4.22886409,12.7344658 L4.22886409,13.2653764 L4.22869944,13.2653764 Z" id="Shape" fill="#000000"></path>
            <path d="M5.10159137,13.2653764 C5.10159137,13.3599501 5.13418692,13.3939216 5.2324675,13.3939216 L5.32366928,13.3939216 C5.41009692,13.3939216 5.4522407,13.4594745 5.4522407,13.5248568 C5.4522407,13.5927997 5.41009692,13.6581819 5.32366928,13.6581819 L5.2324675,13.6581819 C4.95194802,13.6581819 4.8,13.5393672 4.8,13.2653764 L4.8,12.0896911 C4.8,12.0314787 4.87951341,11.9927274 4.9496433,11.9927274 C5.026852,11.9927274 5.10159137,12.0314787 5.10159137,12.0896911 L5.10159137,12.5065668 L5.37750137,12.5065668 C5.42655934,12.5065668 5.45454545,12.5647793 5.45454545,12.6206017 C5.45454545,12.6786433 5.42655934,12.7344658 5.37750137,12.7344658 L5.10159137,12.7344658 L5.10159137,13.2653764 Z" id="Shape" fill="#000000"></path>
            <path d="M6.19432207,12.5181834 L6.19432207,12.5893524 C6.25189633,12.4969663 6.37234318,12.409091 6.53288006,12.409091 C6.78366376,12.409091 6.98181818,12.6274428 6.98181818,12.8907346 L6.98181818,13.0851964 C6.98181818,13.3391327 6.77624619,13.5716849 6.54294672,13.5716849 C6.39247649,13.5716849 6.26196299,13.4814706 6.21445539,13.3842398 L6.21445539,13.9773147 C6.21445539,14.0270995 6.1392203,14.0745456 6.04879688,14.0745456 C5.95607752,14.0745456 5.89090909,14.0270995 5.89090909,13.9773147 L5.89090909,12.5181834 C5.89090909,12.4612148 5.95855006,12.4232914 6.0438518,12.4232914 C6.13162613,12.4232914 6.19432207,12.4612148 6.19432207,12.5181834 Z M6.65827189,12.8907346 C6.65827189,12.7839812 6.55548591,12.6772277 6.43009404,12.6772277 C6.32483553,12.6772277 6.21445539,12.7577522 6.21445539,12.8907346 L6.21445539,13.1279646 C6.21445539,13.1777495 6.3071747,13.3035482 6.43503907,13.3035482 C6.55301337,13.3035482 6.65827189,13.1944558 6.65827189,13.0851964 L6.65827189,12.8907346 Z" id="Shape" fill="#000000"></path>
            <path d="M8.01829762,13.2986577 C8.01829762,13.0744711 7.4515216,13.214655 7.4515216,12.7888979 C7.4515216,12.6079691 7.55911813,12.409091 7.87955032,12.409091 C8.07335871,12.409091 8.25975831,12.4805292 8.25975831,12.5747629 C8.25975831,12.6207131 8.2191781,12.7328961 8.14744708,12.7328961 C8.0900286,12.7328961 8.01594024,12.6589451 7.8844334,12.6589451 C7.7648817,12.6589451 7.71706103,12.7226651 7.71706103,12.773641 C7.71706103,12.9597751 8.29090909,12.8323352 8.29090909,13.2859137 C8.29090909,13.5129722 8.13313456,13.6581819 7.85092524,13.6581819 C7.60710717,13.6581819 7.41818182,13.5510247 7.41818182,13.4388417 C7.41818182,13.3853528 7.4611194,13.2936319 7.52089525,13.2936319 C7.59026891,13.2936319 7.64297266,13.4083278 7.84385315,13.4083278 C7.98478946,13.4083278 8.01829762,13.3496337 8.01829762,13.2986577 Z" id="Shape" fill="#000000"></path>
            <path d="M9.22727273,12.7827085 C9.22727273,12.8702216 9.11251007,12.947973 8.97922895,12.947973 C8.8347323,12.947973 8.72727273,12.8702216 8.72727273,12.7827085 C8.72727273,12.6926266 8.8347323,12.6172728 8.97922895,12.6172728 C9.11251007,12.6172728 9.22727273,12.6926266 9.22727273,12.7827085 Z M9.22727273,13.4927462 C9.22727273,13.5804306 9.11251007,13.6581819 8.97922895,13.6581819 C8.8347323,13.6581819 8.72727273,13.5804306 8.72727273,13.4927462 C8.72727273,13.4028355 8.8347323,13.3274818 8.97922895,13.3274818 C9.11251007,13.3274818 9.22727273,13.4028355 9.22727273,13.4927462 Z" id="Shape" fill="#000000"></path>
            <path d="M10.4727273,11.9000515 C10.4727273,11.9154161 10.4703376,11.9307807 10.4629977,11.9461454 L9.59279669,13.8099665 C9.57572724,13.845757 9.53697955,13.8663637 9.49823187,13.8663637 C9.4279057,13.8663637 9.38181818,13.8074359 9.38181818,13.7533885 C9.38181818,13.7380238 9.38676831,13.7226592 9.39393746,13.7098252 L10.2641385,11.8384121 C10.281208,11.8024408 10.3151762,11.7845455 10.3515341,11.7845455 C10.409741,11.7845455 10.4727273,11.8306395 10.4727273,11.9000515 Z" id="Shape" fill="#000000"></path>
            <path d="M11.1272727,11.9000515 C11.1272727,11.9154161 11.1247123,11.9307807 11.1175431,11.9461454 L10.2471715,13.8099665 C10.2302727,13.845757 10.191525,13.8663637 10.1527774,13.8663637 C10.0824512,13.8663637 10.0363636,13.8074359 10.0363636,13.7533885 C10.0363636,13.7380238 10.0411431,13.7226592 10.048483,13.7098252 L10.918684,11.8384121 C10.9357534,11.8024408 10.9695509,11.7845455 11.0060796,11.7845455 C11.0641157,11.7845455 11.1272727,11.8306395 11.1272727,11.9000515 Z" id="Shape" fill="#000000"></path>
            <path d="M12.6847284,13.5996056 C12.6666277,13.6429557 12.6101534,13.6581819 12.5536791,13.6581819 C12.4894215,13.6581819 12.4327661,13.6377608 12.4173805,13.5996056 L12.2193583,13.0450114 L12.0240514,13.5970977 C12.0086657,13.6377608 11.9469422,13.6581819 11.8826846,13.6581819 C11.8287443,13.6581819 11.772089,13.6429557 11.7541693,13.5970977 L11.358306,12.5923435 C11.3479886,12.5719224 11.3454545,12.5566962 11.3454545,12.5439778 C11.3454545,12.4651595 11.4739698,12.409091 11.5613964,12.409091 C11.6050192,12.409091 11.6435737,12.4268251 11.6564253,12.4624725 L11.9134558,13.1849139 L12.1062287,12.556517 C12.1243295,12.4981198 12.1679523,12.4904171 12.2193583,12.4904171 C12.2682304,12.4904171 12.3145683,12.4981198 12.332488,12.556517 L12.5227268,13.1874217 L12.7822914,12.4624725 C12.795143,12.429333 12.8311635,12.409091 12.8775014,12.409091 C12.9596787,12.409091 13.0909091,12.4649803 13.0909091,12.5464856 C13.0909091,12.5617119 13.088375,12.579446 13.0805917,12.5923435 L12.6847284,13.5996056 Z" id="Shape" fill="#000000"></path>
            <path d="M14.6483648,13.5996056 C14.6304451,13.6429557 14.5739707,13.6581819 14.5173154,13.6581819 C14.4530578,13.6581819 14.3965835,13.6377608 14.3810169,13.5996056 L14.1831757,13.0450114 L13.9876877,13.5970977 C13.9723021,13.6377608 13.9107596,13.6581819 13.8463209,13.6581819 C13.7923807,13.6581819 13.7359064,13.6429557 13.7178057,13.5970977 L13.3219424,12.5923435 C13.311625,12.5719224 13.3090909,12.5566962 13.3090909,12.5439778 C13.3090909,12.4651595 13.4376062,12.409091 13.5250327,12.409091 C13.5686556,12.409091 13.6072101,12.4268251 13.6202427,12.4624725 L13.8772732,13.1849139 L14.0700461,12.556517 C14.0879658,12.4981198 14.1317696,12.4904171 14.1831757,12.4904171 C14.2320477,12.4904171 14.2782046,12.4981198 14.2961243,12.556517 L14.4863632,13.1874217 L14.7461088,12.4624725 C14.7589604,12.429333 14.7949808,12.409091 14.8411377,12.409091 C14.9234961,12.409091 15.0545455,12.4649803 15.0545455,12.5464856 C15.0545455,12.5617119 15.0520113,12.579446 15.044228,12.5923435 L14.6483648,13.5996056 Z" id="Shape" fill="#000000"></path>
            <path d="M16.6120011,13.5996056 C16.5940814,13.6429557 16.5376071,13.6581819 16.4809518,13.6581819 C16.4166942,13.6581819 16.3602198,13.6377608 16.3446532,13.5996056 L16.1468121,13.0450114 L15.9513241,13.5970977 C15.9359385,13.6377608 15.8742149,13.6581819 15.8099573,13.6581819 C15.7560171,13.6581819 15.6995427,13.6429557 15.681442,13.5970977 L15.2855788,12.5923435 C15.2752614,12.5719224 15.2727273,12.5566962 15.2727273,12.5439778 C15.2727273,12.4651595 15.4012425,12.409091 15.4886691,12.409091 C15.5322919,12.409091 15.5708465,12.4268251 15.583879,12.4624725 L15.8409096,13.1849139 L16.0336825,12.556517 C16.0516022,12.4981198 16.095225,12.4904171 16.1466311,12.4904171 C16.1955031,12.4904171 16.241841,12.4981198 16.2597607,12.556517 L16.4499995,13.1874217 L16.7097452,12.4624725 C16.7224157,12.429333 16.7586172,12.409091 16.8047741,12.409091 C16.8869514,12.409091 17.0181818,12.4649803 17.0181818,12.5464856 C17.0181818,12.5617119 17.0156477,12.579446 17.0078644,12.5923435 L16.6120011,13.5996056 Z" id="Shape" fill="#000000"></path>
        </g>
    </g>
</svg>